<svg xmlns="http://www.w3.org/2000/svg" width="173" height="40" fill="none"><path fill="#fff" d="m2.79 32.78-2.5-3.645h1.806l1.698 2.607 1.711-2.607h1.793L4.79 32.78l2.635 3.807H5.633l-1.84-2.79-1.832 2.79H.168zM7.6 29.135h1.726l1.516 4.225q.344.903.458 1.698h.054q.06-.37.222-.897.162-.532 1.712-5.026h1.711l-3.187 8.443q-.87 2.325-2.897 2.325-.525 0-1.024-.115v-1.253q.357.08.815.08 1.146 0 1.61-1.327l.277-.7zM23.28 39.222h-1.475v-2.635h-5.107v2.635h-1.463v-3.861h.607q.795-1.14 1.26-2.75.47-1.616.559-3.476h4.528v6.226h1.092zm-2.647-3.861v-5.013h-1.604a13.6 13.6 0 0 1-.54 2.735q-.403 1.348-.99 2.278zM31.272 32.848q0 1.826-.936 2.85-.937 1.024-2.608 1.024-1.044 0-1.846-.472a3.1 3.1 0 0 1-1.233-1.354q-.432-.883-.432-2.048 0-1.813.93-2.83T27.77 29q1.617 0 2.56 1.044.943 1.038.943 2.804m-5.424 0q0 2.58 1.907 2.58 1.887 0 1.887-2.58 0-2.554-1.9-2.554-.997 0-1.45.66-.444.66-.444 1.894M36.77 32.753v-3.618h1.476v3.618l2.871-3.618h1.671l-2.931 3.605 3.194 3.847h-1.745l-3.06-3.78v3.78h-1.475v-3.78l-3.053 3.78H31.98l3.187-3.847-2.924-3.605h1.67zM47.458 36.722q-1.74 0-2.722-1.01-.978-1.018-.978-2.797 0-1.826.91-2.87t2.5-1.045q1.475 0 2.331.896.855.897.856 2.466v.856H45.39q.034 1.084.586 1.671.553.58 1.557.58.66 0 1.226-.122.572-.127 1.227-.417v1.287a4.9 4.9 0 0 1-1.173.39 7 7 0 0 1-1.354.115m-.29-6.523q-.754 0-1.213.479-.45.478-.539 1.395h3.383q-.015-.923-.445-1.395-.432-.48-1.186-.479M55.16 36.722q-1.692 0-2.574-.984-.876-.99-.876-2.837 0-1.88.916-2.89Q53.549 29 55.288 29q1.179 0 2.122.438l-.478 1.274q-1.005-.391-1.658-.391-1.935 0-1.934 2.567 0 1.253.479 1.887.485.627 1.415.626a4.05 4.05 0 0 0 2.001-.525v1.381a3.1 3.1 0 0 1-.91.357 5.4 5.4 0 0 1-1.165.108M64.586 29.135v1.24h-2.425v6.212h-1.59v-6.212h-2.426v-1.24zM72.49 31.042q0 1.32-1.543 1.597v.054q.863.1 1.321.545.458.444.458 1.153 0 1.058-.808 1.63-.802.567-2.339.566h-3.557v-7.452h3.544q2.924 0 2.924 1.907m-1.388 3.254q0-.54-.417-.761-.418-.23-1.254-.23h-1.826v2.11h1.867q1.63 0 1.63-1.119m-.195-3.12q0-.445-.35-.64-.344-.201-1.031-.202h-1.92v1.793h1.684q.795 0 1.206-.203.41-.209.41-.747M77.618 36.722q-1.738 0-2.722-1.01-.977-1.018-.977-2.797 0-1.826.91-2.87t2.5-1.045q1.474 0 2.331.896.855.897.856 2.466v.856H75.55q.034 1.084.586 1.671.552.58 1.556.58.66 0 1.227-.122.573-.127 1.226-.417v1.287a4.9 4.9 0 0 1-1.172.39 7 7 0 0 1-1.355.115m-.29-6.523q-.754 0-1.212.479-.451.478-.54 1.395h3.383q-.013-.923-.445-1.395-.43-.48-1.185-.479M83.898 29.135v2.992h3.511v-2.992h1.584v7.452h-1.584v-3.214h-3.51v3.214h-1.584v-7.452zM92.847 29.135v2.992h3.51v-2.992h1.584v7.452h-1.584v-3.214h-3.51v3.214h-1.584v-7.452zM104.875 36.587l-.317-1.037h-.054q-.539.68-1.085.93-.546.242-1.401.242-1.099 0-1.719-.593-.613-.592-.613-1.678 0-1.152.856-1.738t2.608-.64l1.287-.04v-.398q0-.715-.337-1.065-.33-.357-1.031-.357-.573 0-1.099.168-.525.169-1.01.398l-.512-1.132q.606-.316 1.327-.478a6 6 0 0 1 1.361-.169q1.422 0 2.143.62.728.62.728 1.947v5.02zm-2.359-1.078q.863 0 1.382-.478.525-.486.525-1.355v-.647l-.957.04q-1.118.042-1.63.378-.506.33-.506 1.018 0 .498.297.775.296.27.889.27M108.978 36.587h-1.772l2.075-3.052q-.755-.216-1.185-.768-.432-.56-.432-1.382 0-1.058.755-1.65.754-.6 2.062-.6h3.396v7.452h-1.59v-2.87h-1.503zm.229-5.188q0 .574.432.862.438.283 1.172.283h1.476v-2.21h-1.725q-.648 0-1.004.276-.351.277-.351.789M124.544 29.135v1.24h-3.235v6.212h-1.583v-7.452zM130.642 36.587l-.317-1.037h-.054q-.539.68-1.085.93-.546.242-1.401.242-1.098 0-1.718-.593-.614-.592-.614-1.678 0-1.152.856-1.738t2.608-.64l1.287-.04v-.398q0-.715-.337-1.065-.33-.357-1.031-.357-.573 0-1.098.168a8 8 0 0 0-1.011.398l-.512-1.132q.606-.316 1.327-.478a6 6 0 0 1 1.361-.169q1.422 0 2.143.62.728.62.728 1.947v5.02zm-2.359-1.078q.863 0 1.382-.478.525-.486.525-1.355v-.647l-.956.04q-1.12.042-1.631.378-.506.33-.506 1.018 0 .498.297.775.297.27.889.27M140.109 36.587h-1.597v-6.212h-2.055q-.19 2.399-.512 3.746-.317 1.347-.836 1.968-.512.62-1.334.62-.52 0-.869-.149v-1.24q.249.095.498.095.688 0 1.079-1.543.397-1.55.62-4.737h5.006zM145.634 36.722q-1.738 0-2.722-1.01-.977-1.018-.977-2.797 0-1.826.91-2.87t2.5-1.045q1.476 0 2.331.896.856.897.856 2.466v.856h-4.966q.033 1.084.586 1.671.552.58 1.557.58.66 0 1.226-.122a6.6 6.6 0 0 0 1.226-.417v1.287a4.9 4.9 0 0 1-1.172.39 7 7 0 0 1-1.355.115m-.289-6.523q-.755 0-1.213.479-.452.478-.539 1.395h3.382q-.013-.923-.444-1.395-.432-.48-1.186-.479M154.111 36.722q-1.415 0-2.196-1.017h-.095q.095.943.095 1.145v3.053h-1.584V29.135h1.28q.054.208.223.997h.081Q152.656 29 154.138 29q1.395 0 2.17 1.01.782 1.012.782 2.838t-.796 2.85q-.788 1.024-2.183 1.024m-.384-6.428q-.943 0-1.381.552-.431.553-.431 1.766v.236q0 1.36.431 1.974.431.606 1.408.606.822 0 1.267-.673.444-.675.445-1.92 0-1.255-.445-1.894-.438-.647-1.294-.647M162.184 36.722q-1.739 0-2.723-1.01-.977-1.018-.977-2.797 0-1.826.91-2.87t2.5-1.045q1.476 0 2.331.896.856.897.856 2.466v.856h-4.966q.034 1.084.586 1.671.553.58 1.557.58.66 0 1.226-.122a6.6 6.6 0 0 0 1.227-.417v1.287a5 5 0 0 1-1.173.39 7 7 0 0 1-1.354.115m-.29-6.523q-.754 0-1.213.479-.452.478-.539 1.395h3.383q-.014-.923-.445-1.395-.432-.48-1.186-.479M167.642 36.587h-1.772l2.075-3.052q-.755-.216-1.186-.768-.432-.56-.431-1.382 0-1.058.754-1.65.756-.6 2.062-.6h3.396v7.452h-1.59v-2.87h-1.502zm.229-5.188q0 .574.431.862.438.283 1.173.283h1.475v-2.21h-1.725q-.647 0-1.004.276-.35.277-.35.789M0 21.599h11.661c4.6 0 6.953-2.083 6.953-6.048v-.062c0-2.946-1.497-4.736-4.38-5.245v-.278c2.416-.462 3.679-2.036 3.679-4.597v-.077C17.913 1.805 15.714 0 11.412 0H0zM4.599 8.84V3.055h5.44c2.199 0 3.29.956 3.29 2.838v.062c0 1.913-1.091 2.885-3.29 2.885zm0 9.689v-6.881h5.581c2.417 0 3.617 1.142 3.617 3.379v.061c0 2.284-1.2 3.44-3.617 3.44zM22.946 0v21.599h4.537V0zM36.975 22c3.664 0 6.33-1.62 7.312-4.366l.312.077c-.593 2.993.03 4.289 3.616 4.289.452 0 .904-.046 1.279-.108l.53-2.669-.78-.015c-.857-.016-1.107-.216-1.107-1.312v-7.42c0-3.672-2.463-5.431-7.717-5.431-5.58 0-8.402 2.175-8.169 5.94l4.475.37c-.187-2.484 1.091-3.61 3.6-3.61 2.246 0 3.306.817 3.306 2.684v.91l-4.427.803c-4.428.817-7.359 2.206-7.359 5.6v.046c0 2.685 1.84 4.212 5.13 4.212m1.808-2.993c-1.527 0-2.354-.54-2.354-1.65v-.032c0-1.589 1.45-2.237 4.319-2.792l2.884-.555v.755c0 2.484-2.26 4.274-4.849 4.274M53.841 21.599h4.537V14.07c0-3.64 1.73-5.893 4.599-5.893 2.136 0 3.196 1.095 3.196 3.193V21.6h4.537V10.29c0-3.394-2.012-5.183-5.753-5.183-3.399 0-5.722 1.48-7.093 4.566l-.312-.139c.623-1.836.842-2.93.842-4.134H53.84zM84.208 21.985c5.348 0 8.34-2.13 8.793-6.249l-4.584-.509c-.186 2.592-1.62 3.903-4.193 3.903-2.884 0-4.38-1.79-4.38-5.322v-.756c0-3.456 1.511-5.2 4.333-5.2 2.604 0 3.96 1.436 4.163 4.305l4.52-.509c-.358-4.366-3.242-6.634-8.667-6.634-5.893 0-8.996 2.854-8.996 8.316v.2c0 5.554 3.072 8.455 9.011 8.455M97.52 21.599h4.537V14.07c0-3.64 1.715-5.878 4.599-5.878 2.135 0 3.196 1.08 3.196 3.178V21.6h4.536V10.29c0-3.394-2.026-5.183-5.752-5.183-3.43 0-5.737 1.48-7.094 4.55l-.327-.123c.608-1.728.826-3.008.842-4.535V0H97.52zM123.803 22c3.663 0 6.329-1.62 7.311-4.366l.312.077c-.593 2.993.031 4.289 3.617 4.289.452 0 .904-.046 1.278-.108l.53-2.669-.779-.015c-.858-.016-1.107-.216-1.107-1.312v-7.42c0-3.672-2.463-5.431-7.717-5.431-5.581 0-8.403 2.175-8.169 5.94l4.474.37c-.187-2.484 1.091-3.61 3.601-3.61 2.245 0 3.305.817 3.305 2.684v.91l-4.427.803c-4.428.817-7.359 2.206-7.359 5.6v.046c0 2.685 1.84 4.212 5.13 4.212m1.808-2.993c-1.528 0-2.354-.54-2.354-1.65v-.032c0-1.589 1.45-2.237 4.318-2.792l2.884-.555v.755c0 2.484-2.26 4.274-4.848 4.274M140.669 21.599h4.536v-6.773c0-4.227 1.325-5.785 4.786-6.032l2.23-.17-.53-3.733c-3.664.277-5.363 1.419-7.047 4.782l-.296-.139c.733-2.16.904-3.023.873-4.134h-4.552zM162.243 21.892c3.367 0 5.566-1.543 6.672-4.335l.328.108c-.53 1.697-.811 3.04-.826 3.934H173V0h-4.537v4.397c0 1.697.234 3.07.795 4.937l-.311.123c-1.107-2.777-3.321-4.381-6.704-4.381-4.677 0-7.14 2.823-7.14 8.223v.385c0 5.385 2.463 8.208 7.14 8.208m1.715-2.777c-2.806 0-4.272-1.774-4.272-5.276v-.71c0-3.517 1.466-5.307 4.272-5.307 2.931 0 4.505 1.882 4.505 5.384v.556c0 3.486-1.574 5.353-4.505 5.353"/></svg>